<svg version="1.1" id="Layer_1" xmlns="http://www.w3.org/2000/svg" xmlns:xlink="http://www.w3.org/1999/xlink" x="0px" y="0px"
	 width="100%" viewBox="0 0 240 240" enable-background="new 0 0 240 240" xml:space="preserve">
<path fill="#28BAE8" opacity="1.000000" stroke="none" 
	d="
M1.000001,134.000000 
	C1.000000,125.645767 1.000000,117.291534 1.330432,108.808304 
	C2.439276,105.419685 3.359975,102.186577 3.972836,98.896118 
	C7.744832,78.644279 16.926062,61.056499 30.670288,45.920616 
	C45.637020,29.438440 64.001968,18.343481 85.636337,12.728599 
	C100.293297,8.924596 115.155197,7.649729 130.056946,10.186290 
	C143.520065,12.477966 156.360748,16.818684 168.389313,23.665039 
	C186.985855,34.249733 201.519501,48.778690 211.698853,67.439751 
	C224.551086,91.000854 228.410233,116.194695 222.966049,142.523712 
	C214.265564,184.600723 188.917068,212.449051 148.876495,226.923752 
	C134.004898,232.299820 118.535553,233.961349 102.509781,232.217728 
	C88.507706,230.694290 75.265182,227.075226 62.935513,220.798676 
	C48.824448,213.615280 36.599648,203.796646 26.597155,191.220093 
	C13.710279,175.016861 5.397310,157.022278 2.924939,136.392227 
	C2.821642,135.530304 1.665597,134.794540 1.000001,134.000000 
M172.847778,138.209976 
	C171.537384,146.896011 170.169891,155.574249 168.981415,164.276932 
	C168.813385,165.507248 169.076462,167.382202 169.890121,168.065491 
	C175.050842,172.399200 180.422546,176.481674 185.992462,180.857376 
	C197.915756,166.339752 205.089584,149.494965 207.056290,130.037262 
	C195.509811,130.037262 184.495621,130.037262 172.909668,130.037262 
	C172.909668,132.703278 172.909668,134.996170 172.847778,138.209976 
M44.620087,178.168045 
	C46.835339,176.158081 48.743210,173.512939 51.326241,172.262955 
	C57.821983,169.119537 58.720882,164.765839 57.168465,157.998108 
	C55.072464,148.860641 54.458397,139.383255 53.197788,129.972198 
	C42.287319,129.972198 31.368683,129.972198 19.926958,129.972198 
	C21.956490,149.507187 29.038513,166.395493 41.552006,181.454987 
	C42.604424,180.342743 43.379654,179.523438 44.620087,178.168045 
M21.857992,100.400391 
	C21.183506,104.199982 20.509020,107.999565 19.794798,112.023003 
	C31.610134,112.023003 42.508926,112.023003 53.009460,112.023003 
	C54.796677,100.046669 56.574333,88.443581 58.180725,76.816826 
	C58.317799,75.824669 57.604427,74.322159 56.793716,73.655968 
	C51.708225,69.476990 46.483032,65.468010 41.034904,61.191536 
	C31.775640,72.202866 25.341677,85.106041 21.857992,100.400391 
M168.710236,76.704620 
	C170.473801,88.455215 172.237366,100.205803 174.009354,112.012527 
	C184.752869,112.012527 195.664444,112.012527 207.063202,112.012527 
	C205.037155,92.488396 197.963089,75.604134 185.837753,61.014736 
	C181.120316,64.924400 176.665314,68.579781 172.257904,72.291672 
	C170.931992,73.408348 169.738480,74.682243 168.710236,76.704620 
M71.055710,108.565178 
	C70.623123,111.300209 71.623680,112.459908 74.547928,112.379234 
	C80.531624,112.214157 86.523186,112.334488 92.511505,112.336121 
	C96.573570,112.337227 100.635635,112.336334 104.759262,112.336334 
	C104.759262,103.322830 104.759262,95.221497 104.759262,87.158730 
	C94.803474,85.492165 85.072166,83.863167 74.465347,82.087616 
	C73.330780,90.662193 72.207123,99.154388 71.055710,108.565178 
M142.354080,158.021118 
	C145.383041,158.733490 148.412003,159.445877 152.472244,160.400803 
	C153.831711,150.074142 155.131058,140.204254 156.462997,130.086853 
	C144.397293,130.086853 133.387344,130.086853 122.226418,130.086853 
	C122.226418,138.626862 122.226418,146.735474 122.226418,154.997681 
	C128.766083,155.997147 135.137268,156.970856 142.354080,158.021118 
M73.957474,155.448547 
	C74.344810,156.989258 74.732147,158.529968 75.058174,159.826813 
	C85.344513,158.096848 95.061844,156.462585 104.696762,154.842194 
	C104.696762,146.416733 104.696762,138.320526 104.696762,130.058975 
	C93.386978,130.058975 82.367218,130.058975 70.486000,130.058975 
	C71.652992,138.575119 72.751381,146.590591 73.957474,155.448547 
M132.522491,112.336823 
	C140.253342,112.336823 147.984177,112.336823 156.594147,112.336823 
	C155.119751,101.538239 153.775925,91.695900 152.461380,82.067963 
	C141.631470,83.899422 132.032028,85.522804 122.346214,87.160797 
	C122.346214,95.386444 122.346214,103.616592 122.346214,112.337006 
	C125.617737,112.337006 128.575378,112.337006 132.522491,112.336823 
M136.078705,42.452976 
	C132.427490,37.404369 128.434280,32.742317 122.393875,29.494303 
	C122.393875,43.201122 122.393875,56.032261 122.393875,69.829514 
	C130.951904,68.259544 138.979538,66.786873 148.332138,65.071129 
	C143.975174,56.937027 140.247238,49.977245 136.078705,42.452976 
M130.149673,206.672882 
	C138.207962,198.450089 143.158554,188.438461 147.413589,176.741699 
	C138.904938,175.214890 130.797867,173.760147 122.421921,172.257141 
	C122.421921,186.277878 122.421921,199.061890 122.421921,212.888046 
	C125.327377,210.589249 127.484268,208.882721 130.149673,206.672882 
M90.958221,67.690338 
	C95.477028,68.227379 99.995834,68.764420 104.699066,69.323372 
	C104.699066,55.703648 104.699066,42.983883 104.699066,29.139147 
	C91.250305,38.059284 85.094055,50.808159 79.646149,64.878319 
	C83.445084,65.794212 86.799545,66.602951 90.958221,67.690338 
M85.244995,190.197693 
	C90.012100,198.857025 95.151428,207.180923 104.627312,212.393387 
	C104.627312,198.810196 104.627312,185.977539 104.627312,172.175858 
	C96.073189,173.742065 88.038170,175.213226 79.338440,176.806091 
	C81.497154,181.691605 83.225403,185.602890 85.244995,190.197693 
M162.849304,56.576260 
	C165.846268,54.101723 168.880249,51.668739 171.780167,49.085289 
	C172.055664,48.839863 171.746201,47.273285 171.278992,46.959713 
	C165.539169,43.107357 159.719254,39.374332 153.920044,35.610458 
	C153.776031,35.946453 153.632019,36.282448 153.488007,36.618443 
	C156.451401,43.076321 159.414795,49.534199 162.849304,56.576260 
M67.512527,49.051022 
	C69.608871,44.876450 71.705215,40.701878 74.495361,35.145679 
	C69.739021,37.853741 66.245346,39.665585 62.931973,41.762356 
	C52.647129,48.270809 52.666016,49.961155 62.874519,56.855778 
	C63.088024,56.999973 63.484074,56.873882 64.145386,56.873882 
	C65.123306,54.555943 66.142647,52.139801 67.512527,49.051022 
M72.541824,205.676041 
	C72.848312,205.648392 73.162079,205.650528 73.457687,205.578308 
	C73.574753,205.549728 73.759644,205.302597 73.731209,205.244949 
	C70.387024,198.464249 67.025658,191.692032 63.385605,184.355850 
	C60.963730,186.624588 58.789036,188.609375 56.674603,190.656403 
	C54.302525,192.952896 54.620834,194.862656 57.481785,196.551758 
	C62.334133,199.416595 67.120087,202.393890 72.541824,205.676041 
M156.367615,204.757309 
	C158.946732,203.254257 161.580109,201.836334 164.095413,200.233185 
	C174.164230,193.815735 174.151138,191.810028 164.081375,185.143524 
	C163.875946,185.007523 163.476532,185.164566 163.080109,185.190643 
	C159.837219,191.932465 156.582947,198.697983 153.017059,206.111343 
	C154.293884,205.594894 155.002487,205.308289 156.367615,204.757309 
z"/>
<path fill="#000000" opacity="1.000000" stroke="none" 
	d="
M1.000001,134.468658 
	C1.665597,134.794540 2.821642,135.530304 2.924939,136.392227 
	C5.397310,157.022278 13.710279,175.016861 26.597155,191.220093 
	C36.599648,203.796646 48.824448,213.615280 62.935513,220.798676 
	C75.265182,227.075226 88.507706,230.694290 102.509781,232.217728 
	C118.535553,233.961349 134.004898,232.299820 148.876495,226.923752 
	C188.917068,212.449051 214.265564,184.600723 222.966049,142.523712 
	C228.410233,116.194695 224.551086,91.000854 211.698853,67.439751 
	C201.519501,48.778690 186.985855,34.249733 168.389313,23.665039 
	C156.360748,16.818684 143.520065,12.477966 130.056946,10.186290 
	C115.155197,7.649729 100.293297,8.924596 85.636337,12.728599 
	C64.001968,18.343481 45.637020,29.438440 30.670288,45.920616 
	C16.926062,61.056499 7.744832,78.644279 3.972836,98.896118 
	C3.359975,102.186577 2.439276,105.419685 1.330432,108.339653 
	C1.000000,72.350052 1.000000,36.700100 1.000000,1.025074 
	C80.945786,1.025074 160.891571,1.025074 240.918686,1.025074 
	C240.918686,80.908218 240.918686,160.816559 240.918686,240.862442 
	C161.000153,240.862442 81.000114,240.862442 1.000000,240.862442 
	C1.000000,205.570999 1.000000,170.254150 1.000001,134.468658 
z"/>
<path fill="#FDFEFF" opacity="1.000000" stroke="none" 
	d="
M172.878723,137.749512 
	C172.909668,134.996170 172.909668,132.703278 172.909668,130.037262 
	C184.495621,130.037262 195.509811,130.037262 207.056290,130.037262 
	C205.089584,149.494965 197.915756,166.339752 185.992462,180.857376 
	C180.422546,176.481674 175.050842,172.399200 169.890121,168.065491 
	C169.076462,167.382202 168.813385,165.507248 168.981415,164.276932 
	C170.169891,155.574249 171.537384,146.896011 172.878723,137.749512 
z"/>
<path fill="#FDFEFF" opacity="1.000000" stroke="none" 
	d="
M44.387486,178.436096 
	C43.379654,179.523438 42.604424,180.342743 41.552006,181.454987 
	C29.038513,166.395493 21.956490,149.507187 19.926958,129.972198 
	C31.368683,129.972198 42.287319,129.972198 53.197788,129.972198 
	C54.458397,139.383255 55.072464,148.860641 57.168465,157.998108 
	C58.720882,164.765839 57.821983,169.119537 51.326241,172.262955 
	C48.743210,173.512939 46.835339,176.158081 44.387486,178.436096 
z"/>
<path fill="#FDFEFF" opacity="1.000000" stroke="none" 
	d="
M21.920486,99.986893 
	C25.341677,85.106041 31.775640,72.202866 41.034904,61.191536 
	C46.483032,65.468010 51.708225,69.476990 56.793716,73.655968 
	C57.604427,74.322159 58.317799,75.824669 58.180725,76.816826 
	C56.574333,88.443581 54.796677,100.046669 53.009460,112.023003 
	C42.508926,112.023003 31.610134,112.023003 19.794798,112.023003 
	C20.509020,107.999565 21.183506,104.199982 21.920486,99.986893 
z"/>
<path fill="#FDFEFF" opacity="1.000000" stroke="none" 
	d="
M168.597260,76.294373 
	C169.738480,74.682243 170.931992,73.408348 172.257904,72.291672 
	C176.665314,68.579781 181.120316,64.924400 185.837753,61.014736 
	C197.963089,75.604134 205.037155,92.488396 207.063202,112.012527 
	C195.664444,112.012527 184.752869,112.012527 174.009354,112.012527 
	C172.237366,100.205803 170.473801,88.455215 168.597260,76.294373 
z"/>
<path fill="#FDFEFF" opacity="1.000000" stroke="none" 
	d="
M71.069580,108.105881 
	C72.207123,99.154388 73.330780,90.662193 74.465347,82.087616 
	C85.072166,83.863167 94.803474,85.492165 104.759262,87.158730 
	C104.759262,95.221497 104.759262,103.322830 104.759262,112.336334 
	C100.635635,112.336334 96.573570,112.337227 92.511505,112.336121 
	C86.523186,112.334488 80.531624,112.214157 74.547928,112.379234 
	C71.623680,112.459908 70.623123,111.300209 71.069580,108.105881 
z"/>
<path fill="#FDFEFF" opacity="1.000000" stroke="none" 
	d="
M141.931274,157.982849 
	C135.137268,156.970856 128.766083,155.997147 122.226418,154.997681 
	C122.226418,146.735474 122.226418,138.626862 122.226418,130.086853 
	C133.387344,130.086853 144.397293,130.086853 156.462997,130.086853 
	C155.131058,140.204254 153.831711,150.074142 152.472244,160.400803 
	C148.412003,159.445877 145.383041,158.733490 141.931274,157.982849 
z"/>
<path fill="#FDFEFF" opacity="1.000000" stroke="none" 
	d="
M73.903618,155.027313 
	C72.751381,146.590591 71.652992,138.575119 70.486000,130.058975 
	C82.367218,130.058975 93.386978,130.058975 104.696762,130.058975 
	C104.696762,138.320526 104.696762,146.416733 104.696762,154.842194 
	C95.061844,156.462585 85.344513,158.096848 75.058174,159.826813 
	C74.732147,158.529968 74.344810,156.989258 73.903618,155.027313 
z"/>
<path fill="#FDFEFF" opacity="1.000000" stroke="none" 
	d="
M132.027756,112.336914 
	C128.575378,112.337006 125.617737,112.337006 122.346214,112.337006 
	C122.346214,103.616592 122.346214,95.386444 122.346214,87.160797 
	C132.032028,85.522804 141.631470,83.899422 152.461380,82.067963 
	C153.775925,91.695900 155.119751,101.538239 156.594147,112.336823 
	C147.984177,112.336823 140.253342,112.336823 132.027756,112.336914 
z"/>
<path fill="#FCFEFF" opacity="1.000000" stroke="none" 
	d="
M136.298996,42.735222 
	C140.247238,49.977245 143.975174,56.937027 148.332138,65.071129 
	C138.979538,66.786873 130.951904,68.259544 122.393875,69.829514 
	C122.393875,56.032261 122.393875,43.201122 122.393875,29.494303 
	C128.434280,32.742317 132.427490,37.404369 136.298996,42.735222 
z"/>
<path fill="#FCFEFF" opacity="1.000000" stroke="none" 
	d="
M129.895416,206.924530 
	C127.484268,208.882721 125.327377,210.589249 122.421921,212.888046 
	C122.421921,199.061890 122.421921,186.277878 122.421921,172.257141 
	C130.797867,173.760147 138.904938,175.214890 147.413589,176.741699 
	C143.158554,188.438461 138.207962,198.450089 129.895416,206.924530 
z"/>
<path fill="#FCFEFF" opacity="1.000000" stroke="none" 
	d="
M90.556114,67.551010 
	C86.799545,66.602951 83.445084,65.794212 79.646149,64.878319 
	C85.094055,50.808159 91.250305,38.059284 104.699066,29.139147 
	C104.699066,42.983883 104.699066,55.703648 104.699066,69.323372 
	C99.995834,68.764420 95.477028,68.227379 90.556114,67.551010 
z"/>
<path fill="#FCFEFF" opacity="1.000000" stroke="none" 
	d="
M85.099319,189.855942 
	C83.225403,185.602890 81.497154,181.691605 79.338440,176.806091 
	C88.038170,175.213226 96.073189,173.742065 104.627312,172.175858 
	C104.627312,185.977539 104.627312,198.810196 104.627312,212.393387 
	C95.151428,207.180923 90.012100,198.857025 85.099319,189.855942 
z"/>
<path fill="#F8FDFE" opacity="1.000000" stroke="none" 
	d="
M162.613739,56.284164 
	C159.414795,49.534199 156.451401,43.076321 153.488007,36.618443 
	C153.632019,36.282448 153.776031,35.946453 153.920044,35.610458 
	C159.719254,39.374332 165.539169,43.107357 171.278992,46.959713 
	C171.746201,47.273285 172.055664,48.839863 171.780167,49.085289 
	C168.880249,51.668739 165.846268,54.101723 162.613739,56.284164 
z"/>
<path fill="#F8FDFE" opacity="1.000000" stroke="none" 
	d="
M67.337265,49.387341 
	C66.142647,52.139801 65.123306,54.555943 64.145386,56.873882 
	C63.484074,56.873882 63.088024,56.999973 62.874519,56.855778 
	C52.666016,49.961155 52.647129,48.270809 62.931973,41.762356 
	C66.245346,39.665585 69.739021,37.853741 74.495361,35.145679 
	C71.705215,40.701878 69.608871,44.876450 67.337265,49.387341 
z"/>
<path fill="#F8FDFE" opacity="1.000000" stroke="none" 
	d="
M72.237885,205.499969 
	C67.120087,202.393890 62.334133,199.416595 57.481785,196.551758 
	C54.620834,194.862656 54.302525,192.952896 56.674603,190.656403 
	C58.789036,188.609375 60.963730,186.624588 63.385605,184.355850 
	C67.025658,191.692032 70.387024,198.464249 73.731209,205.244949 
	C73.759644,205.302597 73.574753,205.549728 73.457687,205.578308 
	C73.162079,205.650528 72.848312,205.648392 72.237885,205.499969 
z"/>
<path fill="#F8FDFE" opacity="1.000000" stroke="none" 
	d="
M156.039352,204.889496 
	C155.002487,205.308289 154.293884,205.594894 153.017059,206.111343 
	C156.582947,198.697983 159.837219,191.932465 163.080109,185.190643 
	C163.476532,185.164566 163.875946,185.007523 164.081375,185.143524 
	C174.151138,191.810028 174.164230,193.815735 164.095413,200.233185 
	C161.580109,201.836334 158.946732,203.254257 156.039352,204.889496 
z"/>
</svg>